<?xml version="1.0" standalone="no"?>
<!DOCTYPE svg PUBLIC "-//W3C//DTD SVG 20010904//EN"
 "http://www.w3.org/TR/2001/REC-SVG-20010904/DTD/svg10.dtd">
<svg version="1.0" xmlns="http://www.w3.org/2000/svg"
 width="586.000000pt" height="586.000000pt" viewBox="0 0 586.000000 586.000000"
 preserveAspectRatio="xMidYMid meet">

<g transform="translate(0.000000,586.000000) scale(0.100000,-0.100000)"
fill="#000000" stroke="none">
<path d="M2690 5789 c-282 -26 -566 -94 -825 -196 -98 -39 -386 -183 -450
-226 -141 -94 -193 -132 -300 -218 -297 -239 -555 -559 -738 -914 -339 -657
-407 -1444 -186 -2156 178 -573 548 -1095 1029 -1450 88 -65 197 -139 204
-139 3 0 30 -16 60 -35 126 -80 372 -192 551 -248 332 -106 567 -142 910 -141
298 2 540 38 815 120 197 60 455 172 607 264 36 22 67 40 70 40 10 0 201 136
293 209 121 97 322 297 426 426 512 634 733 1460 603 2255 -111 681 -441 1273
-959 1721 -41 36 -93 78 -115 94 -22 17 -42 33 -45 36 -8 9 -217 149 -223 149
-3 0 -25 13 -49 29 -52 34 -284 147 -388 189 -89 35 -306 102 -405 125 -269
63 -624 90 -885 66z m516 -100 c632 -61 1225 -343 1683 -800 240 -239 414
-489 558 -800 173 -375 253 -740 253 -1159 0 -530 -126 -976 -409 -1451 -108
-182 -378 -517 -404 -502 -7 3 -9 3 -5 -1 6 -8 -73 -86 -186 -185 -63 -54
-261 -195 -342 -243 -203 -118 -465 -230 -699 -297 -334 -95 -818 -120 -1170
-60 -260 44 -514 124 -750 238 -247 119 -419 230 -610 394 -104 89 -284 273
-340 347 -27 36 -52 67 -55 70 -10 8 -110 149 -110 155 0 3 -16 27 -35 53 -50
70 -148 258 -210 402 -111 261 -177 523 -206 817 -15 154 -6 534 16 673 94
598 362 1130 779 1545 471 469 1069 750 1721 808 93 8 420 6 521 -4z"/>
<path d="M2932 5558 c-18 -18 -15 -46 7 -57 28 -15 57 19 41 48 -12 24 -30 27
-48 9z"/>
<path d="M3067 5512 c-21 -23 -21 -29 -1 -49 12 -12 20 -14 33 -6 11 7 21 7
33 0 18 -12 48 6 48 28 0 23 -30 40 -49 28 -14 -9 -22 -8 -33 3 -13 13 -16 12
-31 -4z"/>
<path d="M2596 5466 c-14 -31 -15 -50 -4 -175 l12 -141 43 0 c37 0 45 4 53 25
5 14 12 25 16 25 3 0 25 -16 49 -36 38 -31 45 -33 53 -18 6 11 26 17 67 20 32
2 62 9 66 15 5 9 11 8 24 -4 22 -23 115 -24 115 -2 0 20 6 19 30 -5 12 -12 33
-20 54 -20 19 0 69 -7 112 -15 43 -8 81 -11 85 -7 19 21 59 192 45 192 -12 0
-46 -40 -46 -54 0 -17 -18 -31 -27 -22 -4 3 -2 22 4 41 7 22 8 35 1 35 -14 0
-34 -23 -43 -49 -4 -14 -13 -21 -23 -19 -18 4 -18 11 -6 67 l7 34 -26 -19
c-14 -10 -31 -31 -36 -46 -10 -28 -33 -36 -60 -19 -10 6 -11 21 -6 60 4 30 3
51 -3 51 -17 0 -44 -39 -51 -72 -6 -31 -10 -33 -45 -31 -51 2 -58 10 -47 66 6
33 5 47 -3 47 -16 0 -40 -39 -46 -75 -5 -29 -7 -30 -60 -30 l-55 0 -14 48
c-14 44 -17 48 -40 42 -35 -9 -58 -32 -73 -71 -7 -19 -17 -34 -24 -34 -7 0
-19 -3 -27 -6 -16 -6 -19 12 -33 164 -3 39 -10 72 -14 72 -4 0 -15 -15 -24
-34z m194 -182 c0 -14 -3 -14 -15 -4 -8 7 -15 14 -15 16 0 2 7 4 15 4 8 0 15
-7 15 -16z"/>
<path d="M2892 5480 c-18 -29 -15 -46 11 -57 19 -9 26 -8 34 6 10 15 12 15 30
-1 26 -23 29 -23 49 7 16 24 16 27 -1 45 -22 24 -41 26 -49 4 -6 -16 -8 -16
-24 0 -24 21 -35 20 -50 -4z"/>
<path d="M3500 5425 c-6 -14 -15 -37 -20 -51 -9 -22 -7 -33 12 -60 13 -19 29
-34 36 -34 12 0 26 -27 38 -74 8 -31 -18 -55 -95 -85 -34 -13 -61 -30 -61 -37
0 -17 99 -29 137 -17 17 5 42 29 62 59 37 54 35 58 16 -44 -5 -25 -2 -28 44
-45 27 -9 56 -17 65 -17 24 0 44 38 60 114 10 49 22 76 40 93 14 13 26 26 26
28 0 4 -41 95 -47 104 -2 3 -14 -6 -28 -19 -21 -20 -24 -31 -24 -89 0 -36 -2
-78 -6 -93 -6 -24 -11 -27 -34 -22 -14 4 -27 8 -28 9 -2 1 4 42 12 91 8 49 15
107 15 128 l0 39 -24 -22 c-13 -12 -31 -46 -40 -74 -10 -29 -26 -68 -37 -87
l-19 -35 6 45 c7 59 -11 136 -43 183 -30 43 -50 47 -63 12z"/>
<path d="M2460 5289 c-10 -36 -9 -44 8 -63 10 -11 22 -27 26 -33 18 -31 -69
-123 -115 -123 -16 0 -29 -4 -29 -10 0 -17 61 -41 98 -38 31 3 40 9 59 43 50
89 51 177 2 239 -28 35 -36 33 -49 -15z"/>
<path d="M3961 5303 c-20 -17 -21 -21 -10 -46 9 -20 19 -27 35 -25 13 2 29 -6
41 -21 17 -20 22 -22 41 -12 26 14 27 24 6 56 -12 18 -22 23 -38 19 -15 -3
-25 2 -37 21 -15 26 -16 26 -38 8z"/>
<path d="M1877 5269 c-4 -13 -7 -36 -7 -50 0 -32 108 -251 120 -244 20 13 -12
126 -68 240 -34 68 -40 75 -45 54z"/>
<path d="M2080 5261 c-13 -26 -13 -120 1 -160 14 -39 41 -56 69 -41 11 6 20 8
20 5 0 -18 -45 -89 -75 -120 -20 -19 -33 -36 -30 -36 34 -8 104 7 127 28 51
46 23 246 -45 321 -25 27 -53 28 -67 3z m59 -85 c9 -10 9 -16 1 -21 -17 -11
-40 3 -34 20 8 19 18 19 33 1z"/>
<path d="M1696 5243 c-13 -13 -6 -94 9 -99 17 -7 85 -112 85 -133 0 -15 -28
-40 -46 -41 -7 0 -20 23 -30 50 -10 28 -21 50 -25 50 -14 0 -21 -78 -9 -100
15 -28 8 -46 -28 -64 -35 -18 -29 -24 -102 99 l-54 90 -8 -38 c-7 -35 -2 -48
63 -163 39 -68 74 -126 78 -128 14 -8 111 64 111 83 0 14 5 18 20 14 11 -3 39
5 62 17 24 13 55 22 71 21 23 -1 27 3 27 24 0 48 -25 92 -57 98 -41 8 -78 87
-68 145 6 39 5 42 -22 48 -15 3 -38 12 -49 20 -12 7 -24 10 -28 7z"/>
<path d="M1595 5181 c-2 -3 -6 -23 -10 -43 -7 -34 -5 -36 24 -43 41 -9 51 -1
51 44 0 35 -3 39 -30 43 -17 3 -33 2 -35 -1z"/>
<path d="M4040 5135 c-23 -24 -43 -35 -62 -35 -30 0 -63 -28 -87 -73 -12 -23
-11 -27 25 -61 41 -37 62 -44 82 -24 9 9 12 5 12 -17 0 -36 8 -48 38 -64 20
-10 27 -10 41 3 20 18 28 12 65 -48 l18 -28 29 28 c32 31 47 70 51 129 2 51
-6 65 -38 65 -29 0 -60 -14 -91 -43 -19 -17 -25 -18 -39 -6 -17 14 -17 36 2
162 4 27 3 47 -3 47 -5 0 -24 -16 -43 -35z m-19 -118 c-8 -8 -16 -7 -28 6 -16
15 -15 17 8 25 18 7 25 6 27 -5 2 -8 -1 -20 -7 -26z m179 -85 c0 -15 -2 -15
-10 -2 -13 20 -13 33 0 25 6 -3 10 -14 10 -23z"/>
<path d="M4360 5006 c-19 -11 -33 -40 -68 -148 l-43 -133 29 -25 c62 -53 97
-75 114 -73 12 2 18 -4 18 -16 0 -19 91 -111 109 -111 18 0 49 41 73 96 18 43
30 56 56 65 37 12 37 12 17 70 -9 24 -13 49 -11 56 9 21 -9 23 -41 4 -26 -16
-31 -26 -36 -74 -3 -30 -11 -67 -19 -81 l-13 -26 -29 27 c-23 21 -26 27 -13
34 63 36 -11 178 -80 153 -43 -15 -51 -39 -23 -69 16 -17 19 -25 9 -25 -8 0
-22 9 -31 19 -9 10 -24 23 -33 28 -15 9 -14 19 16 114 17 57 34 110 36 117 6
15 -6 15 -37 -2z"/>
<path d="M1210 4840 c0 -28 6 -41 23 -53 13 -8 41 -40 62 -71 36 -53 38 -58
22 -73 -16 -16 -19 -15 -50 15 -38 37 -62 41 -77 12 -22 -40 21 -201 57 -214
8 -4 30 3 48 14 45 28 47 26 22 -21 -21 -39 -60 -69 -91 -69 -21 0 -54 46 -62
86 -9 50 -27 42 -19 -8 8 -50 39 -125 62 -150 26 -29 80 -23 113 12 39 41 54
92 47 156 l-5 53 99 87 c54 48 99 90 99 93 0 3 -10 37 -22 74 -19 60 -26 71
-54 83 -69 29 -86 15 -123 -103 l-17 -55 -20 43 c-10 24 -18 50 -16 59 1 9 -1
27 -6 39 -6 18 -17 24 -50 26 l-42 3 0 -38z m219 -101 c-24 -21 -45 -36 -47
-35 -6 7 20 62 34 72 8 7 24 9 36 6 19 -4 16 -9 -23 -43z m-174 -159 c0 -22
-29 -18 -33 3 -3 14 1 18 15 15 10 -2 18 -10 18 -18z"/>
<path d="M2774 4829 c-143 -10 -351 -55 -494 -106 -25 -9 -100 -42 -168 -74
-520 -244 -905 -720 -1035 -1279 -15 -62 -29 -138 -42 -224 -13 -79 -6 -381
10 -491 100 -682 557 -1254 1200 -1503 564 -218 1219 -149 1724 182 396 260
685 660 800 1107 51 200 64 319 58 544 -8 290 -49 473 -165 733 -171 384 -502
729 -877 914 -312 154 -662 222 -1011 197z m393 -94 c562 -73 1048 -399 1346
-903 20 -35 37 -65 37 -68 0 -2 14 -32 31 -66 45 -92 101 -255 128 -373 76
-330 44 -737 -84 -1060 -188 -475 -574 -857 -1053 -1039 -327 -125 -698 -150
-1057 -70 -146 32 -329 104 -495 195 -153 83 -372 269 -493 416 -230 282 -366
604 -408 965 -15 131 -7 386 15 513 49 273 167 545 337 775 79 109 260 290
368 369 387 285 855 407 1328 346z"/>
<path d="M4170 3826 c-313 -47 -573 -176 -786 -390 -158 -158 -242 -289 -339
-526 -44 -107 -54 -126 -79 -135 -25 -8 -31 -6 -52 18 -13 16 -24 36 -24 46 0
41 -54 202 -99 296 -207 428 -584 663 -1109 691 l-132 7 2 -409 3 -408 123
-13 c616 -61 1016 -267 1183 -609 44 -90 67 -114 110 -114 32 0 52 22 123 137
60 94 220 257 326 329 225 154 476 237 798 265 l142 12 -2 406 -3 406 -50 2
c-27 1 -88 -4 -135 -11z"/>
<path d="M1595 2841 l-40 -6 -3 -302 -2 -302 32 -5 c18 -2 96 -9 173 -15 442
-33 854 -168 1073 -353 65 -56 109 -73 164 -64 51 8 84 26 172 90 141 104 366
219 536 275 187 61 259 73 465 76 l190 3 0 304 0 303 -52 3 c-77 4 -280 -24
-410 -58 -239 -62 -424 -155 -598 -301 -93 -77 -133 -124 -249 -283 -16 -21
-43 -44 -60 -51 -28 -12 -35 -11 -69 8 -22 12 -46 35 -54 52 -63 121 -247 317
-384 407 -136 89 -306 167 -402 183 -18 3 -48 10 -67 15 -91 24 -321 35 -415
21z"/>
<path d="M2905 1701 c-58 -16 -80 -29 -121 -71 -99 -100 -87 -268 24 -353 105
-80 235 -67 324 31 58 64 76 149 50 238 -13 46 -74 113 -124 137 -42 20 -114
28 -153 18z"/>
<path d="M1135 4781 c-11 -4 -22 -19 -25 -32 -4 -15 -14 -25 -28 -27 -18 -3
-22 -10 -22 -36 0 -40 4 -44 35 -39 17 4 25 13 27 32 2 20 9 27 31 29 26 3 28
7 25 39 -3 39 -12 46 -43 34z"/>
<path d="M4734 4634 c-27 -13 -38 -31 -74 -125 -24 -60 -40 -112 -37 -116 16
-15 85 78 118 158 19 45 36 87 37 91 5 12 -9 9 -44 -8z"/>
<path d="M4890 4511 c0 -42 10 -61 31 -61 13 0 19 -7 19 -24 0 -27 17 -43 43
-43 12 0 17 8 17 28 0 40 -10 59 -30 59 -12 0 -20 11 -24 35 -6 29 -11 35 -31
35 -21 0 -25 -5 -25 -29z"/>
<path d="M880 4460 c0 -22 22 -100 29 -100 3 0 17 -10 31 -23 120 -108 145
-119 119 -50 -17 45 -179 202 -179 173z"/>
<path d="M4790 4332 c-54 -30 -57 -42 -24 -103 23 -42 34 -54 51 -52 20 2 21
0 13 -23 -6 -14 -10 -31 -10 -38 0 -21 61 -106 76 -106 8 0 14 -10 14 -26 0
-37 58 -137 76 -130 11 4 14 -5 14 -39 0 -25 5 -45 10 -45 13 0 13 -33 -1 -47
-18 -18 -28 -83 -17 -114 11 -32 36 -43 76 -34 25 5 30 1 50 -41 16 -33 27
-44 38 -40 9 3 19 6 24 6 4 0 28 20 53 45 41 40 49 43 81 38 l36 -6 0 56 c0
30 3 62 6 70 7 18 -20 29 -51 21 -15 -4 -26 -16 -30 -33 -6 -28 -60 -101 -74
-101 -8 0 -41 76 -41 92 0 4 19 16 43 26 54 24 69 42 54 63 -22 29 -55 40
-105 33 -45 -6 -49 -4 -60 20 -18 40 -15 52 18 79 17 14 30 30 30 36 0 17 -61
13 -81 -5 -17 -15 -19 -13 -43 35 -14 28 -26 56 -26 62 0 7 14 24 32 39 35 30
31 50 -10 50 -17 0 -32 -8 -40 -20 -16 -26 -27 -19 -53 32 l-21 40 47 89 c45
87 45 89 22 89 -13 0 -32 -6 -42 -14 -17 -12 -25 -12 -54 0 -42 18 -39 18 -81
-4z m100 -59 c0 -5 -7 -16 -14 -25 -12 -16 -14 -16 -24 7 -11 23 -10 25 13 25
14 0 25 -3 25 -7z m298 -512 c11 -6 11 -10 0 -19 -10 -7 -19 -5 -37 9 l-23 19
23 0 c13 0 30 -4 37 -9z m-118 -102 c0 -17 -4 -28 -10 -24 -5 3 -10 17 -10 31
0 13 5 24 10 24 6 0 10 -14 10 -31z"/>
<path d="M798 4317 c-34 -9 -37 -13 -31 -36 13 -55 23 -71 43 -71 11 0 38 -12
60 -26 44 -29 45 -42 9 -99 -18 -28 -19 -29 -14 -5 3 14 0 41 -8 59 l-15 34
-27 -41 c-15 -23 -38 -48 -51 -57 -34 -22 -64 -74 -64 -110 0 -30 33 -95 48
-95 4 0 15 23 25 50 10 28 22 50 27 50 13 0 5 -32 -26 -100 -28 -62 -46 -80
-83 -80 -29 0 -34 -15 -17 -55 14 -32 19 -35 54 -35 27 0 42 -5 46 -16 12 -31
6 -142 -10 -179 -8 -20 -12 -40 -9 -43 4 -4 26 14 51 40 37 39 44 53 44 87 0
21 -9 60 -20 86 l-20 47 30 63 c32 66 37 106 20 151 -14 35 -9 39 19 13 12
-12 24 -19 25 -18 2 2 22 40 46 85 53 98 50 119 -22 186 -39 38 -51 56 -55 88
-6 44 -10 45 -75 27z"/>
<path d="M5046 4265 c-8 -9 -13 -22 -10 -30 4 -10 0 -15 -12 -15 -18 -1 -18
-2 1 -16 11 -8 28 -21 38 -29 23 -20 40 -19 34 3 -2 9 -7 24 -9 32 -3 8 -3 12
-1 8 2 -4 11 -4 19 -1 20 8 17 41 -5 53 -27 14 -37 13 -55 -5z"/>
<path d="M4903 3862 c-21 -15 -22 -43 -3 -62 11 -11 20 -31 20 -45 0 -20 5
-25 25 -25 22 0 25 4 25 35 0 24 -5 35 -15 35 -10 0 -15 10 -15 29 0 29 -18
45 -37 33z"/>
<path d="M455 3616 c-10 -15 -14 -33 -9 -50 5 -20 1 -30 -16 -44 -21 -17 -22
-21 -10 -56 l12 -38 25 24 c17 16 23 30 20 47 -3 15 3 35 15 52 15 20 18 35
13 58 -8 37 -29 40 -50 7z"/>
<path d="M548 3542 c-16 -9 -28 -24 -28 -32 0 -27 84 -183 106 -197 30 -19 51
3 60 62 9 64 -2 110 -38 150 -33 39 -59 43 -100 17z m70 -109 c-16 -33 -32
-36 -36 -6 -2 13 5 27 20 37 28 20 34 7 16 -31z"/>
<path d="M5273 3431 c-40 -42 -73 -82 -73 -88 0 -18 25 -16 68 6 41 21 158
138 148 148 -3 4 -21 7 -39 8 -28 2 -41 -8 -104 -74z"/>
<path d="M5328 3103 c-9 -10 -23 -32 -31 -49 -17 -33 -42 -50 -52 -34 -4 6 3
10 14 10 18 0 21 6 21 40 0 37 -2 40 -29 40 -16 0 -34 -7 -41 -15 -21 -25 -24
-89 -6 -124 16 -30 20 -32 64 -29 44 3 49 6 77 50 27 42 65 64 65 38 0 -5 -9
-10 -19 -10 -23 0 -33 -23 -25 -56 8 -30 42 -32 72 -4 29 28 32 118 4 143 -25
23 -94 22 -114 0z"/>
<path d="M421 3081 c-23 -18 -28 -42 -21 -101 2 -8 0 -22 -4 -30 -11 -28 9
-38 89 -41 l80 -4 6 49 5 48 -57 -6 c-36 -4 -60 -3 -64 4 -4 7 27 10 94 10 56
0 103 -4 106 -10 4 -6 -7 -10 -27 -10 -33 0 -33 -1 -33 -42 l1 -43 44 1 c50 1
75 25 86 78 7 42 -18 93 -52 106 -14 6 -71 10 -127 10 -84 0 -106 -4 -126 -19z"/>
<path d="M5266 2909 c-48 -8 -76 -39 -76 -84 0 -74 33 -95 148 -95 98 0 122
18 122 93 0 56 -27 87 -77 87 -32 0 -33 -1 -33 -40 0 -38 2 -40 30 -40 17 0
30 -5 30 -10 0 -6 -17 -9 -37 -7 l-38 3 3 45 c4 53 -6 60 -72 48z m7 -86 c-7
-2 -19 -2 -25 0 -7 3 -2 5 12 5 14 0 19 -2 13 -5z"/>
<path d="M480 2873 c-52 -7 -80 -38 -80 -88 0 -60 29 -95 81 -95 39 0 39 0 39
40 0 39 -1 40 -36 40 -21 0 -33 4 -29 10 3 6 22 10 41 10 l34 0 0 -50 c0 -49
0 -50 31 -50 43 0 96 27 103 53 11 41 6 85 -13 108 -15 18 -29 23 -77 25 -32
1 -75 0 -94 -3z m127 -89 c-3 -3 -12 -4 -19 -1 -8 3 -5 6 6 6 11 1 17 -2 13
-5z"/>
<path d="M5192 2698 c-5 -7 -13 -47 -17 -89 l-7 -76 75 -11 c41 -7 100 -14
130 -18 l54 -6 6 38 c8 47 3 50 -82 58 -87 9 -121 16 -121 25 0 5 10 7 23 5
12 -2 57 -8 101 -14 88 -13 96 -10 96 46 l0 30 -89 12 c-113 15 -156 15 -169
0z"/>
<path d="M580 2665 c-41 -7 -95 -16 -120 -19 l-45 -7 3 -41 4 -41 57 7 c31 3
81 9 111 12 30 4 52 3 47 -1 -9 -11 -161 -35 -187 -30 -17 3 -20 -1 -20 -33 0
-63 3 -64 130 -42 124 20 147 34 135 80 -4 14 -10 47 -13 74 -4 27 -11 50 -17
52 -5 1 -44 -4 -85 -11z"/>
<path d="M5178 2485 c-37 -21 -56 -82 -38 -125 10 -25 23 -33 69 -47 31 -9 78
-17 105 -17 42 -1 51 3 69 27 14 18 22 43 22 68 0 52 -25 74 -103 89 -31 7
-66 13 -77 16 -11 2 -32 -3 -47 -11z m105 -86 c31 -7 57 -15 57 -19 0 -7 -36
-1 -135 23 -45 11 22 7 78 -4z"/>
<path d="M560 2444 c-75 -20 -104 -53 -96 -108 10 -65 65 -101 120 -80 9 3 16
14 16 23 0 13 2 13 9 2 6 -9 18 -11 42 -6 65 14 94 59 78 119 -18 65 -62 78
-169 50z m120 -68 c0 -2 -9 -6 -20 -9 -11 -3 -20 -1 -20 4 0 5 9 9 20 9 11 0
20 -2 20 -4z m-86 -32 c3 -9 6 -23 5 -32 0 -12 -3 -11 -9 5 -8 19 -14 22 -40
17 -18 -4 -30 -2 -30 4 0 9 19 16 56 21 7 0 15 -6 18 -15z"/>
<path d="M5044 2283 c-9 -32 -19 -63 -21 -69 -2 -7 10 -16 26 -22 28 -10 32
-9 44 13 l12 25 84 -60 c88 -63 118 -77 131 -63 9 9 52 134 48 138 -2 2 -17 6
-34 9 -28 6 -33 4 -40 -18 l-9 -25 -74 55 c-124 93 -144 95 -167 17z"/>
<path d="M630 2239 c-136 -46 -130 -42 -118 -83 13 -42 22 -44 107 -15 59 20
63 20 75 4 10 -14 21 -16 47 -11 19 3 41 11 49 16 13 9 13 12 -2 24 -10 7 -15
16 -12 19 3 3 1 22 -6 41 -14 44 -24 44 -140 5z"/>
<path d="M714 2105 c-4 -8 -4 -25 -1 -36 5 -19 4 -20 -12 -5 -25 23 -62 20
-102 -7 -36 -25 -42 -56 -15 -86 8 -9 17 -31 21 -49 4 -18 13 -36 21 -39 8 -3
59 14 114 37 87 37 100 46 105 71 9 39 -11 94 -40 113 -31 20 -84 21 -91 1z
m66 -75 c-20 -13 -43 -13 -35 0 3 6 16 10 28 10 18 0 19 -2 7 -10z m-113 -46
c-16 -9 -32 -13 -35 -9 -9 9 19 25 43 24 16 0 15 -2 -8 -15z"/>
<path d="M5032 2053 c-20 -8 -42 -59 -42 -96 0 -41 15 -55 94 -91 66 -30 102
-33 133 -11 26 18 47 77 39 110 -6 22 -50 55 -74 55 -15 0 -38 -63 -25 -67 5
-2 19 -10 29 -18 19 -14 18 -14 -1 -14 -11 0 -28 6 -39 14 -17 13 -17 16 -2
46 22 44 20 58 -10 69 -26 10 -80 12 -102 3z m48 -79 c0 -2 -7 -4 -15 -4 -8 0
-15 4 -15 10 0 5 7 7 15 4 8 -4 15 -8 15 -10z"/>
<path d="M778 1903 l-137 -66 20 -39 c11 -21 22 -38 24 -38 3 0 68 31 145 70
l140 70 -17 35 c-9 19 -21 35 -27 35 -6 0 -73 -30 -148 -67z"/>
<path d="M4931 1853 c-42 -39 -50 -91 -19 -126 24 -27 135 -87 161 -87 48 0
99 86 82 139 -7 24 -53 51 -74 43 -8 -3 -11 0 -7 6 8 13 -47 45 -86 50 -18 2
-36 -6 -57 -25z m54 -63 c8 -13 -5 -13 -25 0 -13 8 -13 10 2 10 9 0 20 -4 23
-10z m69 -15 c-4 -9 3 -19 20 -26 14 -7 26 -16 26 -21 0 -11 -7 -10 -41 7 -25
13 -28 19 -19 35 12 23 22 27 14 5z"/>
<path d="M985 1770 c-22 -11 -85 -40 -140 -66 -55 -25 -101 -47 -103 -49 -2
-2 7 -19 20 -39 15 -24 28 -34 38 -30 8 3 21 8 28 11 6 3 12 -2 12 -10 0 -8
-7 -17 -15 -21 -22 -8 -19 -31 8 -62 l24 -27 114 98 c63 54 116 103 117 107 6
15 -46 109 -59 107 -2 0 -22 -9 -44 -19z m-55 -125 c-7 -8 -20 -15 -29 -15
-13 1 -13 3 3 15 26 19 42 19 26 0z"/>
<path d="M4850 1715 c0 -7 -6 -18 -13 -22 -21 -13 -49 -65 -40 -73 26 -23 194
-130 205 -130 12 0 48 48 48 63 0 2 -29 24 -65 47 -59 38 -65 46 -60 69 4 21
0 29 -26 44 -37 21 -49 22 -49 2z"/>
<path d="M4691 1594 c-34 -44 -40 -58 -31 -69 22 -26 227 -175 241 -175 8 0
23 14 33 32 21 35 25 29 -50 84 -25 19 -27 25 -17 42 10 17 8 23 -11 41 -20
19 -24 19 -43 6 -26 -18 -57 -9 -47 14 15 36 13 47 -9 63 -23 16 -24 15 -66
-38z"/>
<path d="M1000 1559 c-125 -97 -137 -118 -92 -159 10 -8 28 -32 42 -52 14 -21
27 -38 30 -38 3 0 51 34 107 76 108 81 107 79 70 128 -13 18 -17 18 -35 5 -11
-7 -50 -36 -86 -63 -37 -26 -69 -46 -72 -43 -3 2 33 33 80 67 89 66 89 66 53
113 -8 9 -18 17 -23 16 -5 0 -38 -23 -74 -50z"/>
<path d="M1225 1459 c-4 -6 -13 -8 -20 -5 -14 5 -49 -27 -40 -36 3 -3 -22 -28
-55 -57 -81 -70 -87 -83 -60 -126 12 -19 28 -35 35 -35 14 0 29 18 30 35 0 16
111 116 125 113 7 -2 21 12 31 30 19 33 19 33 -3 62 -25 32 -33 35 -43 19z"/>
<path d="M1250 1323 c-40 -43 -89 -95 -108 -115 l-36 -38 29 -30 29 -30 76 75
c41 41 79 75 84 75 5 0 -26 -36 -69 -81 l-78 -80 32 -32 32 -32 71 75 c94 101
101 112 89 143 -5 14 -19 28 -31 32 -20 6 -20 8 -6 24 9 10 16 24 16 33 0 13
-39 58 -52 58 -3 0 -38 -35 -78 -77z"/>
<path d="M4533 1342 c-42 -50 -18 -132 37 -132 15 0 20 -7 20 -29 0 -52 70
-88 119 -61 10 5 24 23 31 40 7 16 17 30 22 30 13 0 57 53 51 62 -2 5 -13 8
-24 8 -12 0 -19 7 -19 18 0 11 -9 27 -20 37 -19 17 -20 17 -29 -8 -12 -31 -47
-27 -57 7 -19 62 -91 78 -131 28z m61 -48 c4 -10 1 -14 -6 -12 -15 5 -23 28
-10 28 5 0 13 -7 16 -16z m97 -99 c1 -17 -18 -17 -25 0 -4 11 -1 15 10 13 8
-2 15 -7 15 -13z"/>
<path d="M4336 1195 c-24 -19 -27 -26 -17 -38 6 -8 10 -21 9 -28 -2 -7 7 -18
19 -24 13 -7 47 -42 75 -78 57 -72 72 -78 119 -50 33 19 37 59 7 57 -19 -2
-113 109 -113 134 0 13 -47 50 -65 51 -3 0 -18 -10 -34 -24z"/>
<path d="M1400 1166 c-104 -98 -122 -152 -69 -205 43 -44 94 -43 136 2 95 101
106 147 46 196 -45 37 -79 39 -113 7z m73 -58 c-75 -97 -93 -118 -93 -110 0
11 31 54 69 95 25 27 42 38 24 15z"/>
<path d="M4252 1085 c-11 -14 -25 -25 -31 -25 -19 0 -61 -31 -61 -45 0 -8 6
-20 13 -27 7 -7 37 -48 66 -91 29 -43 59 -81 66 -83 15 -6 64 25 65 39 0 5
-25 45 -56 89 -31 43 -54 81 -51 84 3 3 33 -33 66 -80 l62 -86 30 22 c16 12
29 26 29 32 0 17 -111 174 -134 188 -21 14 -45 8 -64 -17z"/>
<path d="M1524 983 l-77 -107 29 -23 c16 -13 34 -23 39 -22 6 0 30 27 54 60
34 47 48 59 66 57 15 -2 31 7 49 29 14 17 26 33 26 36 0 2 -25 20 -55 40 l-54
37 -77 -107z"/>
<path d="M1736 1034 c-9 -22 -9 -22 22 -38 15 -8 22 -15 17 -16 -6 0 -20 7
-32 15 -21 15 -23 12 -76 -72 -90 -146 -89 -141 -37 -168 l29 -15 34 52 c18
29 49 82 68 118 19 36 40 69 47 73 20 13 14 32 -17 50 -36 21 -47 21 -55 1z"/>
<path d="M1834 965 c-4 -8 -12 -15 -20 -15 -7 0 -16 -12 -19 -27 -3 -16 -24
-65 -46 -111 l-39 -83 30 -30 c37 -38 65 -35 66 7 1 39 64 151 88 158 14 4 17
0 13 -17 -2 -12 -12 -58 -22 -102 -20 -94 -20 -95 -46 -95 -15 0 -20 -6 -17
-22 4 -28 83 -61 111 -46 17 9 70 86 131 190 l27 47 -30 15 c-16 9 -32 16 -35
16 -2 0 -18 -24 -35 -52 -17 -29 -31 -51 -31 -48 0 3 6 28 14 57 15 58 13 63
-39 80 -24 8 -29 15 -27 35 2 19 -5 28 -33 41 -31 15 -36 15 -41 2z"/>
<path d="M4055 968 c-29 -15 -55 -50 -55 -72 0 -11 19 -53 41 -92 52 -90 80
-106 140 -79 44 20 59 40 59 80 0 58 -34 81 -74 50 -15 -12 -17 -19 -8 -44 14
-39 2 -40 -21 -2 l-17 30 40 22 c22 13 40 28 40 35 0 7 -15 29 -34 48 -35 38
-72 46 -111 24z m45 -76 c0 -15 -2 -15 -10 -2 -13 20 -13 33 0 25 6 -3 10 -14
10 -23z"/>
<path d="M3895 874 c-16 -17 -30 -24 -43 -20 -11 4 -29 -2 -45 -14 -14 -11
-30 -20 -36 -20 -7 0 -29 -9 -51 -20 l-39 -20 -6 21 c-4 13 -12 18 -22 15 -8
-3 -25 -9 -38 -12 -19 -5 -23 -12 -23 -45 -1 -23 5 -42 13 -46 8 -5 25 -45 39
-89 32 -100 41 -109 95 -94 44 12 57 43 23 54 -22 7 -64 138 -54 167 6 15 18
-4 52 -86 47 -109 57 -118 101 -95 26 14 24 26 -16 115 -20 43 -34 83 -32 89
4 10 34 -47 70 -136 18 -43 42 -49 75 -20 l21 17 -39 85 c-22 47 -40 91 -40
98 0 29 19 -2 55 -88 21 -49 41 -90 45 -90 4 0 22 5 39 11 37 13 38 9 -14 129
-53 121 -84 144 -130 94z"/>
<path d="M2198 815 c-7 -9 -21 -24 -32 -35 -11 -11 -16 -26 -12 -35 3 -9 -7
-60 -24 -113 -16 -52 -29 -96 -27 -97 1 -1 17 -7 36 -14 42 -14 40 -16 76 98
15 47 34 90 41 94 17 10 18 47 2 48 -7 0 -3 4 10 9 21 9 30 34 15 43 -27 16
-72 17 -85 2z"/>
<path d="M2293 718 c-11 -13 -27 -51 -36 -85 -30 -113 -21 -143 52 -163 77
-20 106 10 131 136 15 74 5 99 -45 120 -49 20 -78 17 -102 -8z m71 -65 c-14
-66 -36 -135 -40 -130 -4 4 17 104 31 145 8 23 15 12 9 -15z"/>
<path d="M3453 720 c-27 -16 -33 -26 -33 -55 0 -45 32 -79 89 -95 30 -8 41
-16 41 -30 0 -11 -4 -20 -10 -20 -5 0 -10 9 -10 20 0 21 -16 25 -57 14 -52
-14 -9 -84 51 -84 83 0 118 40 97 110 -11 37 -16 41 -66 56 -39 11 -55 20 -55
32 1 15 2 15 15 -2 11 -15 19 -16 42 -9 34 12 41 38 17 64 -23 25 -79 25 -121
-1z"/>
<path d="M2717 688 c-4 -24 -9 -94 -13 -157 -7 -125 -5 -131 52 -131 l32 0 6
118 c4 64 9 136 13 160 5 41 5 42 -25 42 -17 0 -37 3 -45 6 -11 4 -16 -6 -20
-38z"/>
<path d="M2477 674 c-3 -16 -9 -58 -13 -93 -3 -35 -10 -78 -15 -95 -10 -36 -5
-42 42 -51 l35 -7 15 79 c12 68 17 78 36 81 18 3 24 12 29 42 4 22 7 43 8 46
0 4 -10 8 -24 10 -14 1 -44 5 -66 9 -40 7 -42 6 -47 -21z"/>
<path d="M3285 692 c-60 -21 -73 -60 -53 -159 13 -68 27 -91 60 -102 72 -25
133 20 129 97 -1 19 -7 22 -41 22 -40 0 -40 0 -40 -37 0 -28 -3 -34 -10 -23
-15 23 -12 57 6 64 9 3 29 6 46 6 30 0 31 0 25 46 -3 26 -13 54 -23 65 -22 21
-69 31 -99 21z m35 -72 c0 -11 -2 -20 -4 -20 -2 0 -6 9 -9 20 -3 11 -1 20 4
20 5 0 9 -9 9 -20z"/>
<path d="M3153 673 c-20 -4 -22 -11 -25 -71 l-3 -67 -14 62 c-8 34 -21 65 -29
68 -19 7 -62 -5 -62 -17 0 -7 -4 -7 -13 0 -7 6 -42 11 -78 11 -36 0 -72 1 -80
3 -11 2 -14 -21 -17 -130 l-3 -133 43 3 43 3 6 105 c6 121 12 107 9 -22 -2
-96 -7 -88 60 -92 l25 -1 5 120 5 119 29 -118 29 -118 50 5 c27 4 51 8 53 10
2 2 7 63 10 135 8 142 10 135 -43 125z"/>
</g>
</svg>
