<?xml version="1.0" standalone="no"?>
<!DOCTYPE svg PUBLIC "-//W3C//DTD SVG 20010904//EN"
 "http://www.w3.org/TR/2001/REC-SVG-20010904/DTD/svg10.dtd">
<svg version="1.0" xmlns="http://www.w3.org/2000/svg"
 width="259.000000pt" height="266.000000pt" viewBox="0 0 259.000000 266.000000"
 preserveAspectRatio="xMidYMid meet">

<g transform="translate(0.000000,266.000000) scale(0.100000,-0.100000)"
fill="#000000" stroke="none">
<path d="M1108 2565 c-4 -4 20 -194 37 -281 l5 -31 153 -6 c101 -3 171 -11
210 -23 31 -9 60 -14 63 -11 8 8 74 188 74 203 0 7 -32 20 -82 32 -73 17 -84
18 -95 5 -18 -24 -27 -92 -13 -108 15 -18 -4 -28 -47 -23 -28 3 -28 4 -31 76
-3 69 -4 72 -27 72 -23 0 -24 -4 -27 -67 l-3 -68 -70 0 -69 0 -8 40 c-3 22
-10 75 -13 118 -6 71 -8 77 -29 77 -13 0 -25 -2 -28 -5z m436 -171 c21 -8 22
-74 2 -74 -20 0 -46 28 -46 49 0 29 14 37 44 25z"/>
<path d="M1261 2540 c-7 -4 -11 -16 -9 -26 4 -22 37 -31 48 -13 16 25 -14 55
-39 39z"/>
<path d="M1514 2536 c-9 -24 4 -48 23 -44 24 4 24 52 0 56 -9 2 -20 -4 -23
-12z"/>
<path d="M987 2517 c-8 -21 8 -39 29 -35 27 5 25 42 -2 46 -12 2 -24 -3 -27
-11z"/>
<path d="M1603 2504 c-3 -8 1 -22 9 -30 12 -12 17 -12 33 -1 23 17 14 47 -15
47 -11 0 -23 -7 -27 -16z"/>
<path d="M900 2495 c-11 -13 -11 -18 2 -31 20 -20 50 -7 46 20 -4 26 -30 32
-48 11z"/>
<path d="M705 2466 c-18 -13 -16 -20 51 -160 64 -135 87 -166 100 -133 4 12
-108 283 -124 299 -5 5 -17 2 -27 -6z"/>
<path d="M1038 2455 c-3 -3 -32 -12 -64 -21 -88 -22 -88 -23 -53 -136 l30 -96
72 20 c40 11 73 21 75 23 1 1 -7 46 -18 101 -11 54 -20 102 -20 107 0 8 -14
10 -22 2z m-24 -81 c3 -9 6 -29 6 -45 0 -24 -4 -29 -25 -29 -22 0 -25 4 -25
38 0 21 3 42 7 45 11 12 31 7 37 -9z"/>
<path d="M1794 2435 c-4 -9 -2 -21 4 -27 16 -16 47 -5 47 17 0 26 -42 34 -51
10z"/>
<path d="M613 2413 c-20 -7 -17 -14 43 -118 50 -88 61 -125 35 -125 -5 0 -23
23 -40 50 -17 28 -35 50 -40 50 -23 0 -20 -23 9 -65 29 -42 34 -75 11 -75 -5
0 -23 23 -41 50 -18 28 -36 50 -41 50 -23 0 -18 -33 11 -74 22 -30 30 -51 26
-63 -6 -15 -14 -10 -54 34 -26 28 -53 49 -59 46 -20 -8 -16 -19 28 -69 l40
-47 -22 -23 c-24 -26 -22 -26 -97 29 -30 23 -56 36 -61 31 -5 -5 -25 -33 -45
-63 -27 -39 -33 -57 -26 -66 6 -7 47 -37 92 -66 l81 -53 32 39 c33 38 33 38
59 22 14 -10 26 -24 26 -32 0 -22 13 -18 29 7 12 20 11 24 -13 44 -14 13 -26
27 -26 33 0 15 97 98 161 137 l58 36 -72 144 c-39 79 -76 144 -82 143 -5 0
-16 -3 -22 -6z m-195 -403 c26 -22 26 -47 0 -64 -22 -13 -58 17 -58 49 0 40
22 45 58 15z"/>
<path d="M1880 2405 c-16 -19 -6 -45 19 -45 23 0 35 28 20 46 -15 18 -24 18
-39 -1z"/>
<path d="M1699 2333 c-34 -79 -60 -145 -57 -147 2 -1 41 -24 88 -50 139 -80
262 -186 337 -293 l30 -42 102 65 101 66 -17 30 c-63 106 -103 121 -171 62
-23 -20 -46 -34 -51 -32 -4 2 -36 29 -71 60 -62 57 -63 57 -46 83 23 34 49 31
95 -10 36 -33 40 -34 55 -20 9 9 16 20 16 25 0 13 -118 110 -133 110 -18 0
-30 -11 -61 -52 -31 -41 -42 -45 -71 -24 -18 13 -17 15 13 65 18 28 32 58 32
67 0 9 -26 26 -63 43 -108 49 -104 49 -128 -6z m99 -73 c3 -37 -11 -54 -42
-46 -28 7 -33 25 -15 57 15 29 53 21 57 -11z m418 -287 c6 -22 2 -31 -22 -50
-32 -25 -63 -30 -82 -11 -20 20 -13 42 21 65 45 31 75 30 83 -4z"/>
<path d="M700 1462 c0 -554 0 -557 68 -686 73 -140 222 -255 378 -292 88 -20
235 -14 316 13 138 48 269 160 331 285 65 129 67 147 67 588 0 217 -3 439 -7
493 l-6 97 -574 0 -573 0 0 -498z m47 253 c7 11 13 14 13 8 0 -9 23 -13 80
-13 69 0 80 2 81 18 1 9 5 -1 10 -23 4 -22 8 -185 8 -362 1 -296 3 -327 21
-375 22 -59 20 -75 -4 -25 -28 61 -40 64 -91 22 -25 -21 -46 -40 -46 -44 -8
-38 -4 -111 6 -131 16 -30 76 -95 127 -135 l36 -30 -29 1 c-16 1 -34 2 -39 3
-18 2 -78 67 -115 125 -19 30 -46 88 -60 130 -22 66 -25 94 -28 238 -3 240 5
648 12 608 6 -32 7 -34 18 -15z m225 5 c-3 -18 0 -30 7 -30 6 0 11 8 12 18 0
14 2 14 8 -3 8 -19 8 -19 15 3 12 36 16 21 7 -20 -12 -51 -1 -56 21 -12 20 41
13 60 -25 67 -12 2 106 4 263 4 157 0 275 -2 262 -4 -12 -2 -27 -13 -32 -24
-10 -18 -6 -23 14 -20 4 1 5 -14 2 -33 -6 -30 -4 -35 9 -30 10 4 13 14 9 30
-4 15 -2 24 5 24 6 0 11 7 11 16 0 11 6 15 20 11 13 -3 20 0 20 8 0 8 -8 16
-17 18 -14 4 -12 5 5 6 l22 1 2 -237 c4 -466 3 -495 -25 -556 -34 -75 -88
-132 -161 -167 -81 -40 -136 -46 -217 -26 -106 27 -181 89 -227 185 -20 43
-26 75 -30 151 -6 125 8 650 17 650 4 0 6 -13 3 -30z m715 -13 c131 5 135 6
130 25 -3 10 -2 18 2 18 24 0 30 -741 7 -828 -24 -90 -70 -175 -130 -240 -54
-57 -76 -69 -76 -39 0 8 3 7 9 -2 7 -11 11 -9 20 8 8 15 9 21 1 21 -22 0 -50
-21 -44 -32 4 -7 3 -8 -4 -4 -7 4 -12 2 -12 -4 0 -6 -4 -9 -9 -5 -5 3 -16 -2
-24 -10 -9 -8 -21 -15 -29 -15 -7 0 5 12 27 26 87 58 185 172 184 215 0 13 3
35 6 49 6 22 -1 32 -46 68 -36 29 -56 39 -63 32 -19 -19 -24 -10 -15 28 5 20
9 195 10 387 0 226 4 341 10 325 8 -21 15 -25 46 -23z m-549 -939 c59 -29 76
-33 147 -32 102 1 174 31 245 104 27 27 52 46 55 40 10 -16 -77 -95 -140 -126
-50 -24 -74 -29 -156 -32 -133 -6 -191 12 -265 81 -47 44 -55 57 -50 75 7 21
10 20 52 -27 29 -32 70 -62 112 -83z m463 -41 c-31 -31 -33 -31 -47 -13 -7 11
-14 25 -14 30 0 6 7 3 14 -6 17 -23 26 -23 26 1 0 13 8 21 23 23 34 6 34 0 -2
-35z m-657 18 c-4 -8 -1 -15 5 -15 6 0 11 5 11 11 0 6 16 -1 35 -15 19 -15 40
-24 45 -21 6 3 10 -1 10 -9 0 -21 -12 -20 -55 4 -20 11 -40 18 -45 15 -11 -7
-33 22 -25 35 10 16 25 12 19 -5z m686 -25 c0 -5 -4 -10 -10 -10 -5 0 -10 5
-10 10 0 6 5 10 10 10 6 0 10 -4 10 -10z m-85 -21 c0 -17 -72 -59 -104 -59
-18 0 -22 4 -18 20 4 14 0 20 -11 20 -15 0 -15 2 -2 10 11 7 19 5 32 -10 20
-25 24 -25 31 1 4 16 11 19 26 14 16 -5 21 -2 21 10 0 9 6 15 13 13 6 -3 12
-11 12 -19z m-455 -22 c0 -9 12 -14 32 -15 17 0 35 -7 39 -14 6 -9 11 -6 18
12 l11 25 -3 -25 c-2 -27 -7 -27 -100 -17 -35 4 -65 17 -39 17 7 0 12 7 12 15
0 8 7 15 15 15 8 0 15 -6 15 -13z m300 -38 c0 -12 -12 -18 -47 -22 -58 -6 -63
-3 -62 31 0 26 1 26 9 5 10 -26 20 -29 38 -11 9 9 12 9 12 -2 1 -10 4 -9 12 4
9 15 8 21 -2 24 -10 4 -10 6 1 12 15 10 38 -16 39 -41z m-365 31 c3 -5 2 -10
-4 -10 -5 0 -13 5 -16 10 -3 6 -2 10 4 10 5 0 13 -4 16 -10z m188 -20 c-3 -11
-7 -20 -9 -20 -2 0 -4 9 -4 20 0 11 4 20 9 20 5 0 7 -9 4 -20z m54 14 c-3 -3
-12 -4 -19 -1 -8 3 -5 6 6 6 11 1 17 -2 13 -5z m3 -28 c0 -18 -17 -29 -30 -21
-8 5 -7 11 1 21 15 18 29 18 29 0z m-230 -42 c0 -2 -9 0 -20 6 -11 6 -20 13
-20 16 0 2 9 0 20 -6 11 -6 20 -13 20 -16z m575 16 c3 -5 1 -10 -4 -10 -6 0
-11 5 -11 10 0 6 2 10 4 10 3 0 8 -4 11 -10z m-631 -26 c7 -19 2 -18 -19 6
-16 17 -16 20 -3 15 9 -4 19 -13 22 -21z m605 2 c-2 -2 -15 -9 -29 -15 -24
-11 -24 -11 -6 3 16 13 49 24 35 12z"/>
<path d="M897 673 c-10 -9 -9 -23 1 -23 5 0 9 7 9 15 0 17 -1 18 -10 8z"/>
<path d="M1063 1728 c3 -10 53 -13 203 -14 109 -1 205 -3 213 -5 8 -2 17 4 19
14 3 16 -12 17 -218 17 -173 0 -221 -3 -217 -12z"/>
<path d="M1111 1575 c-32 -35 -41 -52 -40 -77 2 -32 2 -32 6 -4 3 15 20 44 40
64 32 32 41 35 94 37 l59 1 0 -107 c0 -131 -5 -138 -93 -141 l-62 -1 65 -7 65
-7 -75 -3 -75 -4 80 -6 80 -7 -85 1 c-81 1 -84 2 -91 26 -4 14 -8 21 -8 15 -1
-5 -9 -20 -19 -33 l-18 -23 -2 35 c-2 20 1 36 7 36 5 0 11 10 14 23 6 21 6 21
-14 -3 -16 -21 -18 -21 -13 -5 4 15 3 17 -4 6 -8 -11 -12 -9 -22 9 -6 12 -14
19 -18 16 -3 -4 4 -20 16 -36 12 -16 22 -39 22 -51 0 -21 0 -21 -21 2 -19 23
-20 23 -10 2 6 -12 16 -25 22 -28 6 -4 14 -17 19 -29 8 -20 9 -20 10 -1 0 11
7 29 15 39 13 17 15 17 21 3 5 -15 29 -17 200 -17 107 0 194 3 194 8 0 4 -37
6 -82 6 l-83 -1 75 7 75 6 -73 2 c-40 1 -71 6 -68 10 3 5 -4 16 -15 25 -17 15
-19 30 -19 125 l0 108 61 -2 c55 -1 63 -4 94 -37 30 -32 34 -44 38 -99 l3 -63
2 70 c1 69 1 71 -39 113 -30 32 -44 40 -57 34 -20 -10 -202 -9 -218 1 -7 4
-29 -12 -53 -38z m187 -238 c4 -20 -25 -34 -40 -19 -15 15 -1 44 19 40 10 -2
19 -11 21 -21z"/>
<path d="M1056 1593 c-4 -5 -17 -8 -29 -8 -11 0 -22 -6 -24 -12 -7 -21 32 -15
52 7 17 19 18 29 1 13z"/>
<path d="M1506 1581 c-4 -9 31 -40 38 -34 3 4 1 12 -6 20 -8 11 -7 12 5 8 8
-4 17 -2 20 3 3 4 -8 8 -24 8 -17 0 -31 -2 -33 -5z"/>
<path d="M1431 1524 c0 -11 3 -14 6 -6 3 7 2 16 -1 19 -3 4 -6 -2 -5 -13z"/>
<path d="M970 1514 c0 -5 12 -22 26 -39 l26 -30 19 24 c11 13 18 26 16 28 -8
7 -37 -9 -31 -18 13 -21 -16 -7 -35 17 -12 15 -21 23 -21 18z"/>
<path d="M1506 1485 c4 -8 10 -15 15 -15 5 0 9 -15 10 -32 1 -27 2 -29 7 -11
4 13 15 32 25 43 23 27 22 38 -2 16 -16 -15 -19 -15 -31 -1 -16 19 -31 19 -24
0z"/>
<path d="M1561 1407 c-6 -8 -8 -17 -4 -20 3 -4 1 -7 -4 -7 -6 0 -13 3 -16 8
-2 4 -2 0 0 -8 2 -8 -6 -4 -17 10 -16 21 -20 22 -20 7 0 -10 7 -20 15 -23 8
-4 15 -13 15 -21 0 -11 6 -8 18 8 29 38 41 79 13 46z"/>
<path d="M1151 1383 c-1 -18 19 -27 32 -13 9 10 8 12 -5 7 -9 -3 -19 -1 -22 6
-3 9 -5 9 -5 0z"/>
<path d="M1218 1383 c6 -2 18 -2 25 0 6 3 1 5 -13 5 -14 0 -19 -2 -12 -5z"/>
<path d="M1308 1383 c6 -2 18 -2 25 0 6 3 1 5 -13 5 -14 0 -19 -2 -12 -5z"/>
<path d="M1368 1368 c9 -9 15 -9 24 0 9 9 7 12 -12 12 -19 0 -21 -3 -12 -12z"/>
<path d="M1380 1350 l-55 -7 58 -1 c32 -1 57 2 57 8 0 6 -1 9 -2 8 -2 -1 -28
-4 -58 -8z"/>
<path d="M1490 1336 c0 -8 4 -17 9 -20 5 -4 7 3 4 14 -6 23 -13 26 -13 6z"/>
<path d="M1560 1335 c-7 -8 -17 -12 -23 -8 -6 3 -7 1 -3 -5 4 -7 2 -12 -3 -12
-6 0 -11 -10 -10 -22 0 -15 2 -18 6 -8 3 8 17 27 31 43 14 15 23 27 20 27 -3
0 -11 -7 -18 -15z"/>
<path d="M1072 1260 c-12 -20 -35 -22 -61 -6 -9 6 -12 5 -9 -5 3 -8 12 -13 21
-13 8 1 13 -4 11 -11 -3 -7 2 -15 10 -18 10 -4 13 -1 9 9 -3 8 -2 14 3 12 5
-2 10 1 11 6 1 5 7 12 13 16 7 4 11 13 9 19 -2 6 -10 2 -17 -9z"/>
<path d="M1471 1268 c-1 -9 4 -20 9 -23 6 -4 8 -10 5 -15 -3 -5 0 -12 6 -16 8
-4 9 -3 5 4 -4 7 -1 12 9 12 9 0 13 -4 10 -10 -3 -6 1 -7 10 -4 15 6 35 35 35
51 0 4 -7 -1 -16 -12 -13 -17 -16 -18 -24 -5 -7 10 -10 11 -10 3 0 -21 -16
-15 -28 10 -8 17 -11 18 -11 5z"/>
<path d="M1207 1253 c-12 -11 -8 -42 6 -50 8 -4 19 -17 26 -28 10 -17 11 -13
5 25 -8 59 -18 73 -37 53z"/>
<path d="M1130 1243 c0 -5 7 -26 15 -48 11 -32 14 -35 14 -15 1 35 -10 70 -20
70 -5 0 -9 -3 -9 -7z"/>
<path d="M1270 1243 c0 -7 8 -28 17 -47 l16 -35 19 41 c21 47 17 63 -6 21 -8
-15 -15 -23 -16 -17 0 15 -29 51 -30 37z"/>
<path d="M1350 1235 c0 -8 9 -15 20 -15 15 0 20 -7 20 -24 0 -14 5 -28 12 -32
8 -5 9 0 5 17 -4 13 -7 34 -7 47 0 17 -6 22 -25 22 -16 0 -25 -6 -25 -15z"/>
<path d="M1096 1194 c-3 -9 -4 -20 0 -25 3 -5 -4 -9 -15 -9 -12 0 -21 -5 -21
-10 0 -7 -7 -7 -20 0 -11 6 -18 15 -15 20 3 5 1 11 -5 15 -5 3 -10 0 -10 -8 0
-8 15 -26 33 -40 l33 -25 14 21 c12 20 24 77 16 77 -2 0 -7 -7 -10 -16z"/>
<path d="M1443 1195 c-3 -9 -3 -18 -1 -21 3 -3 8 4 11 16 6 23 -1 27 -10 5z"/>
<path d="M1491 1184 c0 -11 3 -14 6 -6 3 7 2 16 -1 19 -3 4 -6 -2 -5 -13z"/>
<path d="M1457 1167 c-3 -9 2 -21 11 -29 11 -9 14 -10 8 0 -4 7 -1 12 8 12 9
0 16 -5 16 -12 0 -6 9 -3 20 7 25 22 27 44 3 23 -18 -15 -43 -13 -54 4 -3 5
-9 3 -12 -5z"/>
<path d="M1456 1060 c-10 -28 -16 -54 -12 -57 3 -4 6 1 6 9 0 9 5 18 11 20 11
4 31 78 20 78 -4 0 -15 -23 -25 -50z"/>
<path d="M1076 1082 c-4 -6 0 -25 9 -41 21 -42 37 -48 21 -9 -7 18 -15 40 -18
48 -3 10 -6 11 -12 2z"/>
<path d="M1272 982 c-19 -13 -26 -13 -48 -2 -21 12 -27 11 -41 -3 -14 -14 -19
-14 -45 -1 -25 13 -31 13 -53 -2 -22 -14 -26 -14 -47 0 -25 18 -38 20 -38 8 0
-5 15 -17 34 -27 31 -17 35 -17 56 -2 20 14 25 14 46 0 22 -14 26 -14 50 2 24
16 27 16 45 -1 18 -16 20 -16 37 -1 23 21 36 21 52 2 10 -12 15 -12 36 2 23
14 26 14 45 -3 16 -15 23 -16 37 -6 32 23 43 24 61 8 18 -16 20 -16 47 8 30
26 19 35 -16 14 -15 -10 -22 -9 -37 4 -17 15 -20 15 -42 -3 -23 -19 -23 -19
-51 1 -24 17 -29 18 -40 5 -16 -19 -29 -19 -49 -1 -14 12 -19 12 -39 -2z"/>
<path d="M1184 934 c-17 -12 -26 -12 -48 -3 -21 10 -31 10 -50 0 -18 -10 -29
-10 -44 -2 -13 7 -23 7 -27 1 -3 -5 7 -16 23 -24 26 -13 31 -13 50 0 19 13 25
13 50 0 26 -13 31 -13 45 1 13 14 20 14 47 3 26 -11 33 -10 49 4 16 15 19 15
31 1 16 -19 34 -19 50 0 11 13 15 12 39 -4 26 -19 27 -19 53 0 22 17 27 17 38
4 17 -20 33 -19 55 5 16 17 16 20 2 20 -9 0 -19 -4 -22 -10 -4 -6 -16 -3 -31
6 -23 15 -26 15 -44 -1 -18 -17 -21 -17 -45 -1 -24 16 -29 16 -49 2 -21 -13
-25 -13 -40 2 -15 15 -18 15 -45 -1 -25 -15 -30 -15 -41 -2 -15 18 -19 18 -46
-1z"/>
<path d="M1190 895 c-14 -17 -46 -20 -55 -5 -9 15 -30 12 -56 -9 -29 -24 -19
-39 12 -18 19 14 24 14 45 0 22 -14 26 -14 50 2 24 16 27 16 45 -1 18 -16 20
-16 39 1 18 17 21 17 46 1 24 -17 27 -17 45 0 18 16 20 16 37 1 23 -21 31 -21
53 -1 14 12 22 13 39 4 31 -17 39 -2 10 20 -23 17 -26 17 -52 2 -25 -15 -29
-15 -48 3 -19 17 -21 17 -39 1 -18 -17 -21 -17 -45 0 -25 16 -28 16 -45 0 -18
-16 -21 -16 -44 -2 -22 15 -26 15 -37 1z"/>
<path d="M1272 848 c-21 -21 -22 -21 -41 -4 -19 18 -22 18 -46 2 -19 -12 -30
-14 -44 -6 -36 19 -46 10 -18 -15 33 -29 40 -30 57 -10 16 19 29 19 52 -2 17
-15 20 -15 41 5 l23 22 22 -22 c21 -21 22 -21 42 -3 19 17 21 17 39 0 19 -16
21 -16 50 5 46 32 43 55 -3 25 -21 -14 -25 -14 -48 5 -25 19 -25 19 -43 0 -18
-20 -18 -20 -40 0 l-21 20 -22 -22z"/>
<path d="M207 1923 c-17 -17 -2 -33 63 -67 39 -21 70 -42 70 -48 0 -9 -25 -59
-43 -85 -6 -9 -25 -5 -74 13 -64 24 -93 26 -93 5 0 -5 32 -20 70 -32 52 -17
70 -27 70 -41 0 -23 -4 -22 -75 2 -71 25 -75 25 -75 1 0 -14 14 -22 60 -35 62
-18 79 -31 62 -48 -7 -7 -31 -6 -77 4 -57 13 -67 13 -72 1 -3 -7 -3 -17 0 -20
4 -3 59 -15 124 -27 113 -20 118 -22 118 -46 l0 -25 -122 4 c-120 3 -123 3
-123 -18 0 -20 5 -21 123 -22 67 0 134 -3 150 -5 30 -5 32 -2 42 67 l6 46 -42
7 c-39 6 -41 8 -35 34 4 15 27 68 51 119 25 50 45 93 45 96 0 5 -203 127 -212
127 -2 0 -8 -3 -11 -7z"/>
<path d="M2270 1848 c-80 -44 -146 -82 -148 -83 -1 -1 13 -33 31 -71 19 -38
45 -105 57 -149 12 -44 24 -86 26 -92 5 -17 175 -18 192 -1 18 18 14 52 -16
153 -23 77 -30 90 -51 93 -37 6 -40 -8 -21 -83 25 -92 25 -111 0 -118 -24 -6
-35 8 -45 53 -4 19 -23 75 -42 123 -20 48 -34 89 -32 91 2 2 54 27 115 56
l112 52 -11 29 c-6 16 -14 29 -17 29 -3 0 -70 -37 -150 -82z"/>
<path d="M463 1753 c-18 -7 -16 -42 3 -50 8 -3 23 1 31 10 13 13 14 19 3 31
-13 17 -17 18 -37 9z"/>
<path d="M420 1665 c-11 -13 -11 -19 3 -32 21 -21 49 -9 45 19 -4 28 -30 35
-48 13z"/>
<path d="M2100 1585 c-7 -8 -10 -22 -6 -30 7 -20 42 -19 50 1 8 22 8 22 -13
33 -14 8 -22 7 -31 -4z"/>
<path d="M2242 1238 c2 -6 26 -17 52 -25 59 -17 56 -35 -9 -48 -27 -6 -51 -17
-53 -24 -3 -9 2 -11 14 -8 114 34 143 39 195 35 44 -3 59 -1 59 9 0 9 -15 13
-47 13 -29 1 -78 13 -123 30 -83 33 -93 35 -88 18z"/>
<path d="M280 1233 c-8 -4 -32 -23 -52 -45 -51 -51 -108 -49 -108 4 0 10 -4
18 -10 18 -5 0 -10 -13 -10 -30 0 -38 36 -64 76 -54 16 4 50 26 76 50 26 24
50 44 53 44 21 0 45 -24 45 -46 0 -14 4 -22 10 -19 16 10 11 51 -8 68 -19 17
-44 20 -72 10z"/>
<path d="M263 1065 c-116 -30 -133 -39 -133 -71 0 -71 30 -77 174 -39 52 14
98 25 102 25 4 0 3 5 -2 10 -8 8 -44 3 -118 -16 -100 -25 -109 -26 -124 -10
-26 25 -4 49 59 64 108 26 159 43 159 52 0 13 -10 12 -117 -15z"/>
<path d="M2212 1043 c-12 -53 -8 -65 11 -39 12 17 19 16 126 -9 98 -24 136
-27 120 -10 -3 2 -54 17 -114 33 -95 24 -110 32 -113 50 -6 37 -20 25 -30 -25z"/>
<path d="M2182 938 c4 -12 211 -98 236 -98 37 0 -1 24 -106 64 -128 50 -136
52 -130 34z"/>
<path d="M306 870 c-60 -28 -111 -52 -113 -54 -8 -7 26 -76 37 -76 7 0 8 6 0
19 -5 11 -10 25 -10 30 0 15 92 59 97 46 2 -5 8 -17 13 -25 13 -22 23 -5 11
19 -10 18 -7 23 28 41 52 26 55 25 71 -7 7 -16 15 -23 17 -16 5 13 -24 73 -35
73 -4 -1 -56 -23 -116 -50z"/>
<path d="M2140 855 c-21 -26 -8 -69 28 -86 28 -15 39 -15 80 -4 76 19 118 -8
94 -61 -16 -34 10 -33 28 1 31 57 -30 106 -108 86 -59 -15 -76 -14 -96 8 -14
15 -15 24 -7 40 13 24 -2 37 -19 16z"/>
<path d="M480 790 c0 -6 7 -21 16 -34 8 -13 11 -26 7 -29 -4 -3 -59 -17 -120
-32 -63 -15 -113 -32 -113 -39 0 -18 53 -91 57 -79 3 7 -3 24 -13 38 -10 15
-13 29 -8 34 5 4 58 20 119 35 60 15 111 29 114 31 4 5 -47 85 -54 85 -3 0 -5
-5 -5 -10z"/>
<path d="M2051 704 c-12 -15 -21 -30 -21 -34 0 -9 198 -150 210 -150 18 0 10
12 -32 51 l-43 38 35 -5 c19 -3 47 -10 62 -14 17 -5 30 -5 33 1 7 10 -17 21
-84 39 -33 9 -41 15 -41 35 0 27 -46 65 -78 65 -11 0 -30 -12 -41 -26z m87
-17 c15 -12 16 -67 1 -67 -17 0 -79 51 -79 65 0 24 48 25 78 2z"/>
<path d="M1950 595 l-23 -25 63 -67 c35 -38 77 -81 92 -97 l29 -29 29 28 c32
31 42 59 12 32 -26 -24 -44 -21 -75 11 -31 32 -33 44 -12 62 21 17 12 24 -14
10 -26 -13 -52 -1 -71 34 -12 23 -11 28 5 46 28 31 -6 26 -35 -5z"/>
<path d="M595 578 c-54 -29 -125 -117 -125 -153 0 -25 35 -74 45 -63 4 3 1 16
-5 28 -6 12 -9 33 -6 46 7 28 56 86 97 115 27 19 31 19 59 5 25 -12 30 -12 30
-1 0 30 -58 44 -95 23z"/>
<path d="M1887 533 c-4 -3 7 -30 24 -59 37 -65 53 -114 36 -114 -6 0 -37 28
-68 61 -34 36 -62 59 -68 54 -8 -4 23 -39 80 -93 96 -91 126 -110 114 -73 -8
27 -104 231 -109 231 -1 0 -6 -3 -9 -7z"/>
<path d="M680 403 c-50 -48 -90 -94 -90 -102 0 -11 4 -10 20 4 16 15 26 17 48
9 25 -9 33 -29 21 -59 -2 -5 1 -12 6 -14 8 -2 75 151 101 232 11 35 -19 15
-106 -70z m44 -45 c-13 -29 -22 -38 -38 -36 -33 5 -29 30 11 73 31 34 37 37
41 21 2 -10 -4 -36 -14 -58z"/>
<path d="M1748 444 c-9 -8 116 -227 132 -232 18 -6 11 11 -56 136 -52 96 -63
110 -76 96z"/>
<path d="M821 313 c-29 -66 -48 -120 -43 -125 5 -5 19 14 32 44 12 29 29 62
37 73 13 18 14 11 11 -69 -2 -54 1 -91 7 -93 6 -1 33 49 60 113 63 146 60 137
44 132 -7 -2 -25 -33 -39 -68 -39 -96 -52 -91 -44 19 4 58 3 91 -3 91 -5 0
-33 -53 -62 -117z"/>
<path d="M1670 402 c0 -5 11 -40 25 -76 14 -37 25 -70 25 -74 0 -4 -29 24 -64
62 -34 38 -65 65 -68 60 -6 -8 73 -229 87 -242 13 -13 16 10 5 40 -7 18 -18
53 -26 78 l-14 45 54 -60 c31 -33 56 -63 56 -67 0 -11 30 -10 30 0 0 21 -88
236 -98 240 -7 2 -12 -1 -12 -6z"/>
<path d="M1064 314 c-8 -20 -33 -74 -54 -120 -27 -59 -35 -84 -25 -84 7 0 17
9 20 20 11 36 75 22 75 -15 0 -13 5 -27 10 -30 6 -4 10 42 10 129 0 143 -8
166 -36 100z m16 -94 c0 -54 -2 -60 -20 -60 -11 0 -23 6 -26 13 -5 14 31 107
41 107 3 0 5 -27 5 -60z"/>
<path d="M1500 333 c0 -10 7 -58 15 -108 19 -114 19 -112 -6 -120 -28 -9 -46
11 -53 60 -27 176 -29 185 -43 171 -9 -8 23 -210 37 -237 13 -24 72 -26 91 -3
19 23 -10 254 -32 254 -5 0 -9 -8 -9 -17z"/>
<path d="M1196 278 c-3 -29 -8 -87 -11 -129 l-6 -77 38 -5 c47 -6 66 8 22 17
l-32 6 7 120 c5 77 4 120 -3 120 -5 0 -12 -24 -15 -52z"/>
</g>
</svg>
