<?xml version="1.0" standalone="no"?>
<!DOCTYPE svg PUBLIC "-//W3C//DTD SVG 20010904//EN"
 "http://www.w3.org/TR/2001/REC-SVG-20010904/DTD/svg10.dtd">
<svg version="1.0" xmlns="http://www.w3.org/2000/svg"
 width="900.000000pt" height="500.000000pt" viewBox="0 0 900.000000 500.000000"
 preserveAspectRatio="xMidYMid meet">

<g transform="translate(0.000000,500.000000) scale(0.100000,-0.100000)"
fill="#000000" stroke="none">
<path d="M453 3158 l-263 -151 0 -399 c0 -440 2 -464 63 -586 38 -79 145 -195
222 -241 158 -95 363 -113 529 -46 32 13 176 90 319 172 293 166 368 227 425
339 66 132 67 136 67 592 l0 413 -56 31 -57 31 -220 -123 -221 -124 -3 -441
c-3 -395 -6 -445 -22 -487 -10 -27 -22 -50 -26 -53 -11 -7 -124 31 -159 53
-63 40 -114 89 -146 142 -60 99 -65 138 -65 577 l0 391 -50 31 c-28 17 -56 31
-63 30 -6 0 -130 -68 -274 -151z m270 -365 c4 -414 6 -427 68 -543 63 -118
180 -220 295 -257 30 -9 54 -20 54 -24 0 -16 -89 -79 -151 -108 -140 -66 -277
-65 -415 4 -119 58 -206 160 -244 284 -18 58 -20 94 -20 426 l0 362 198 115
c108 64 200 116 204 117 3 1 8 -169 11 -376z m951 -418 c-22 -69 -67 -137
-123 -186 -50 -45 -153 -99 -188 -99 -21 0 -21 1 -5 48 14 39 17 113 20 452
l3 405 152 87 152 87 3 -372 c2 -320 0 -378 -14 -422z"/>
<path d="M5930 2919 c-241 -40 -389 -279 -325 -524 50 -191 213 -315 414 -315
87 0 240 60 291 115 l23 24 -33 40 c-17 23 -34 41 -36 41 -3 0 -22 -13 -42
-30 -66 -52 -128 -74 -213 -74 -63 0 -87 5 -132 28 -172 84 -222 336 -96 489
49 60 109 89 194 95 92 6 162 -11 226 -53 l49 -34 30 44 30 43 -33 28 c-46 39
-122 71 -197 83 -73 12 -74 12 -150 0z"/>
<path d="M2570 2642 c0 -307 4 -336 59 -415 80 -116 255 -174 406 -133 111 29
188 90 234 186 26 55 26 55 29 348 l4 292 -61 0 -61 0 0 -250 c0 -137 -5 -271
-11 -298 -12 -58 -63 -124 -118 -151 -118 -60 -275 -17 -333 91 -22 41 -23 54
-26 326 l-3 282 -60 0 -59 0 0 -278z"/>
<path d="M3670 2505 l0 -415 153 0 c227 0 333 30 421 117 148 146 145 457 -6
599 -95 88 -189 114 -425 114 l-143 0 0 -415z m388 281 c93 -33 153 -111 170
-219 18 -115 -23 -249 -93 -303 -58 -44 -104 -56 -227 -62 l-118 -5 0 308 0
308 113 -6 c61 -3 131 -13 155 -21z"/>
<path d="M4907 2908 c-3 -7 -76 -186 -162 -398 -87 -212 -160 -393 -162 -402
-5 -16 3 -18 61 -18 36 0 66 4 66 9 0 5 16 47 35 93 l35 84 170 33 c94 19 173
31 176 29 2 -3 27 -59 54 -124 l49 -119 65 -3 65 -3 -164 405 c-90 223 -166
410 -170 416 -9 15 -112 13 -118 -2z m116 -308 c26 -63 48 -121 49 -129 2 -11
-27 -20 -111 -38 -63 -12 -116 -21 -118 -19 -2 2 24 73 59 159 35 86 66 153
69 149 4 -4 27 -59 52 -122z"/>
<path d="M6700 2505 l0 -415 60 0 60 0 0 415 0 415 -60 0 -60 0 0 -415z"/>
<path d="M7150 2865 l0 -55 140 0 140 0 0 -360 0 -360 65 0 65 0 0 360 0 360
140 0 140 0 0 55 0 55 -345 0 -345 0 0 -55z"/>
<path d="M8064 2904 c3 -8 73 -116 156 -238 l150 -223 0 -176 0 -177 60 0 60
0 0 175 0 175 151 226 c82 124 153 232 156 240 4 11 -8 14 -59 14 l-65 0 -117
-170 c-65 -93 -121 -170 -125 -170 -5 0 -62 77 -127 170 l-118 170 -64 0 c-54
0 -63 -2 -58 -16z"/>
</g>
</svg>
